<svg width="156" height="40" viewBox="0 0 156 40" fill="none" xmlns="http://www.w3.org/2000/svg">
<path d="M31.6471 8.43938C31.0613 7.85354 30.1032 7.85354 29.5173 8.43938L26.4643 11.4948C25.2134 10.6627 23.7779 10.2497 22.3365 10.2497C20.4174 10.2497 18.4737 10.9822 17.0337 12.4469L12.5336 16.9472C9.96732 19.5106 9.65099 23.4747 11.5787 26.384L8.52587 29.4394C7.94003 30.0253 7.94003 30.9745 8.52587 31.5606C8.81891 31.8536 9.20267 32 9.58643 32C9.97044 32 10.354 31.8536 10.647 31.5606L13.6998 28.5051C14.9509 29.3372 16.395 29.7502 17.8365 29.7502C19.7306 29.7502 21.6743 29.0178 23.1393 27.553L27.6307 23.053C30.197 20.4893 30.5133 16.5252 28.5854 13.616L31.6471 10.5605C32.2329 9.97466 32.2329 9.02522 31.6471 8.43938ZM26.8276 17.75C26.8276 18.9512 26.3589 20.0821 25.5096 20.9317L21.0182 25.4317C20.1657 26.2813 19.013 26.75 17.8365 26.75C17.1568 26.75 16.5064 26.5832 15.9088 26.2988L18.1223 24.0605C18.7082 23.4747 18.7082 22.5255 18.1223 21.9394C17.5612 21.3536 16.612 21.3536 16.0261 21.9394L13.7879 24.1777C13.5009 23.5829 13.3367 22.9325 13.3367 22.25C13.3367 21.0488 13.8054 19.9179 14.655 19.0683L19.1301 14.5683C19.9797 13.7187 21.1353 13.25 22.3365 13.25C23.0162 13.25 23.6635 13.4168 24.2613 13.7012L21.9791 15.9862C21.3933 16.572 21.3933 17.5212 21.9791 18.1073C22.2722 18.4004 22.6557 18.5468 23.0397 18.5468C23.4206 18.5468 23.8043 18.4004 24.0971 18.1073L26.3767 15.8223C26.6635 16.4168 26.8276 17.0674 26.8276 17.75Z" fill="#0065FE"/>
<path d="M40.0865 8V32" stroke="#0065FE" stroke-width="2" stroke-linecap="round"/>
<path d="M55.3825 27.336C53.7185 27.336 52.3185 26.968 51.1825 26.232C50.0465 25.48 49.2465 24.464 48.7825 23.184L51.6145 21.528C52.2705 23.24 53.5585 24.096 55.4785 24.096C56.4065 24.096 57.0865 23.928 57.5185 23.592C57.9505 23.256 58.1665 22.832 58.1665 22.32C58.1665 21.728 57.9025 21.272 57.3745 20.952C56.8465 20.616 55.9025 20.256 54.5425 19.872C53.7905 19.648 53.1505 19.424 52.6225 19.2C52.1105 18.976 51.5905 18.68 51.0625 18.312C50.5505 17.928 50.1585 17.448 49.8865 16.872C49.6145 16.296 49.4785 15.624 49.4785 14.856C49.4785 13.336 50.0145 12.128 51.0865 11.232C52.1745 10.32 53.4785 9.864 54.9985 9.864C56.3585 9.864 57.5505 10.2 58.5745 10.872C59.6145 11.528 60.4225 12.448 60.9985 13.632L58.2145 15.24C57.5425 13.8 56.4705 13.08 54.9985 13.08C54.3105 13.08 53.7665 13.24 53.3665 13.56C52.9825 13.864 52.7905 14.264 52.7905 14.76C52.7905 15.288 53.0065 15.72 53.4385 16.056C53.8865 16.376 54.7345 16.728 55.9825 17.112C56.4945 17.272 56.8785 17.4 57.1345 17.496C57.4065 17.576 57.7665 17.712 58.2145 17.904C58.6785 18.08 59.0305 18.248 59.2705 18.408C59.5265 18.568 59.8145 18.784 60.1345 19.056C60.4545 19.328 60.6945 19.608 60.8545 19.896C61.0305 20.184 61.1745 20.536 61.2865 20.952C61.4145 21.352 61.4785 21.792 61.4785 22.272C61.4785 23.824 60.9105 25.056 59.7745 25.968C58.6545 26.88 57.1905 27.336 55.3825 27.336ZM71.4895 27.336C68.9615 27.336 66.8735 26.496 65.2255 24.816C63.5775 23.136 62.7535 21.064 62.7535 18.6C62.7535 16.12 63.5775 14.048 65.2255 12.384C66.8735 10.704 68.9615 9.864 71.4895 9.864C73.0095 9.864 74.4095 10.224 75.6895 10.944C76.9855 11.648 77.9935 12.608 78.7135 13.824L75.8575 15.48C75.4415 14.728 74.8495 14.144 74.0815 13.728C73.3135 13.296 72.4495 13.08 71.4895 13.08C69.8575 13.08 68.5375 13.592 67.5295 14.616C66.5375 15.64 66.0415 16.968 66.0415 18.6C66.0415 20.216 66.5375 21.536 67.5295 22.56C68.5375 23.584 69.8575 24.096 71.4895 24.096C72.4495 24.096 73.3135 23.888 74.0815 23.472C74.8655 23.04 75.4575 22.456 75.8575 21.72L78.7135 23.376C77.9935 24.592 76.9935 25.56 75.7135 26.28C74.4335 26.984 73.0255 27.336 71.4895 27.336ZM80.748 10.2H84.06V27H80.748V10.2ZM92.6481 27.336C90.9841 27.336 89.5841 26.968 88.4481 26.232C87.3121 25.48 86.5121 24.464 86.0481 23.184L88.8801 21.528C89.5361 23.24 90.8241 24.096 92.7441 24.096C93.6721 24.096 94.3521 23.928 94.7841 23.592C95.2161 23.256 95.4321 22.832 95.4321 22.32C95.4321 21.728 95.1681 21.272 94.6401 20.952C94.1121 20.616 93.1681 20.256 91.8081 19.872C91.0561 19.648 90.4161 19.424 89.8881 19.2C89.3761 18.976 88.8561 18.68 88.3281 18.312C87.8161 17.928 87.4241 17.448 87.1521 16.872C86.8801 16.296 86.7441 15.624 86.7441 14.856C86.7441 13.336 87.2801 12.128 88.3521 11.232C89.4401 10.32 90.7441 9.864 92.2641 9.864C93.6241 9.864 94.8161 10.2 95.8401 10.872C96.8801 11.528 97.6881 12.448 98.2641 13.632L95.4801 15.24C94.8081 13.8 93.7361 13.08 92.2641 13.08C91.5761 13.08 91.0321 13.24 90.6321 13.56C90.2481 13.864 90.0561 14.264 90.0561 14.76C90.0561 15.288 90.2721 15.72 90.7041 16.056C91.1521 16.376 92.0001 16.728 93.2481 17.112C93.7601 17.272 94.1441 17.4 94.4001 17.496C94.6721 17.576 95.0321 17.712 95.4801 17.904C95.9441 18.08 96.2961 18.248 96.5361 18.408C96.7921 18.568 97.0801 18.784 97.4001 19.056C97.7201 19.328 97.9601 19.608 98.1201 19.896C98.2961 20.184 98.4401 20.536 98.5521 20.952C98.6801 21.352 98.7441 21.792 98.7441 22.272C98.7441 23.824 98.1761 25.056 97.0401 25.968C95.9201 26.88 94.4561 27.336 92.6481 27.336ZM106.125 27.336C104.461 27.336 103.061 26.968 101.925 26.232C100.789 25.48 99.9887 24.464 99.5247 23.184L102.357 21.528C103.013 23.24 104.301 24.096 106.221 24.096C107.149 24.096 107.829 23.928 108.261 23.592C108.693 23.256 108.909 22.832 108.909 22.32C108.909 21.728 108.645 21.272 108.117 20.952C107.589 20.616 106.645 20.256 105.285 19.872C104.533 19.648 103.893 19.424 103.365 19.2C102.853 18.976 102.333 18.68 101.805 18.312C101.293 17.928 100.901 17.448 100.629 16.872C100.357 16.296 100.221 15.624 100.221 14.856C100.221 13.336 100.757 12.128 101.829 11.232C102.917 10.32 104.221 9.864 105.741 9.864C107.101 9.864 108.293 10.2 109.317 10.872C110.357 11.528 111.165 12.448 111.741 13.632L108.957 15.24C108.285 13.8 107.213 13.08 105.741 13.08C105.053 13.08 104.509 13.24 104.109 13.56C103.725 13.864 103.533 14.264 103.533 14.76C103.533 15.288 103.749 15.72 104.181 16.056C104.629 16.376 105.477 16.728 106.725 17.112C107.237 17.272 107.621 17.4 107.877 17.496C108.149 17.576 108.509 17.712 108.957 17.904C109.421 18.08 109.773 18.248 110.013 18.408C110.269 18.568 110.557 18.784 110.877 19.056C111.197 19.328 111.437 19.608 111.597 19.896C111.773 20.184 111.917 20.536 112.029 20.952C112.157 21.352 112.221 21.792 112.221 22.272C112.221 23.824 111.653 25.056 110.517 25.968C109.397 26.88 107.933 27.336 106.125 27.336ZM128.4 24.816C126.704 26.496 124.64 27.336 122.208 27.336C119.776 27.336 117.712 26.496 116.016 24.816C114.336 23.12 113.496 21.048 113.496 18.6C113.496 16.152 114.336 14.088 116.016 12.408C117.712 10.712 119.776 9.864 122.208 9.864C124.64 9.864 126.704 10.712 128.4 12.408C130.096 14.088 130.944 16.152 130.944 18.6C130.944 21.048 130.096 23.12 128.4 24.816ZM118.344 22.56C119.384 23.584 120.672 24.096 122.208 24.096C123.744 24.096 125.032 23.584 126.072 22.56C127.112 21.52 127.632 20.2 127.632 18.6C127.632 17 127.112 15.68 126.072 14.64C125.032 13.6 123.744 13.08 122.208 13.08C120.672 13.08 119.384 13.6 118.344 14.64C117.304 15.68 116.784 17 116.784 18.6C116.784 20.2 117.304 21.52 118.344 22.56ZM142.487 27L139.103 21.168H136.583V27H133.271V10.2H139.991C141.543 10.2 142.863 10.744 143.951 11.832C145.039 12.92 145.583 14.232 145.583 15.768C145.583 16.808 145.287 17.776 144.695 18.672C144.103 19.552 143.319 20.216 142.343 20.664L146.063 27H142.487ZM136.583 13.296V18.264H139.991C140.615 18.264 141.151 18.024 141.599 17.544C142.047 17.048 142.271 16.456 142.271 15.768C142.271 15.08 142.047 14.496 141.599 14.016C141.151 13.536 140.615 13.296 139.991 13.296H136.583Z" fill="#0065FE"/>
</svg>
